<svg xmlns:dc="http://purl.org/dc/elements/1.1/" xmlns:cc="http://creativecommons.org/ns#" xmlns:rdf="http://www.w3.org/1999/02/22-rdf-syntax-ns#" xmlns:svg="http://www.w3.org/2000/svg" xmlns="http://www.w3.org/2000/svg" xmlns:sodipodi="http://sodipodi.sourceforge.net/DTD/sodipodi-0.dtd" xmlns:inkscape="http://www.inkscape.org/namespaces/inkscape" version="1.1" x="0px" y="0px" viewBox="0 0 100 125"><g transform="translate(0,-952.36218)"><path style="text-indent:0;text-transform:none;direction:ltr;block-progression:tb;baseline-shift:baseline;color:#000000;enable-background:accumulate;" d="m 67,957.36217 c 2.1814,0 4,1.81858 4,4 l 0,6 c 0,2.18142 -1.8186,4 -4,4 l -3,0 0,13.59375 19.75,46.40628 0.094,0.2187 c 1.2539,2.2646 2.156,4.4862 2.156,6.7813 0,2.5361 -0.838,4.9178 -2.625,6.5625 -1.787,1.6446 -4.3265,2.4375 -7.375,2.4375 l -52,0 c -3.0485,0 -5.588,-0.7929 -7.375,-2.4375 -1.787,-1.6447 -2.625,-4.0264 -2.625,-6.5625 0,-2.2951 0.9021,-4.5167 2.1562,-6.7813 l 0.094,-0.1875 0,-0.031 L 36,984.95592 l 0,-13.59375 -3,0 c -2.1814,0 -4,-1.81858 -4,-4 l 0,-6 c 0,-2.18142 1.8186,-4 4,-4 l 34,0 z m 0,4 -34,0 0,6 34,0 0,-6 z m -7,10 -20,0 0,14 0,0.40625 -0.1562,0.375 -12.7188,29.87498 c 2.0928,1.8193 3.6571,2.8865 5.0312,3.4688 1.649,0.6986 3.2495,0.875 5.875,0.875 3.5418,0 6.9561,-2.1841 10.75,-4.6875 3.7942,-2.5035 7.9728,-5.3125 13.1876,-5.3125 3.0845,0 6.2536,0.4334 9.25,1.8125 L 60.1562,986.14342 60,985.76842 l 0,-0.40625 0,-14 z m -11,9 c 2.7377,0 5,2.26222 5,5 0,2.73779 -2.2623,5 -5,5 -2.7377,0 -5,-2.26221 -5,-5 0,-2.73778 2.2623,-5 5,-5 z m 0,4 c -0.5759,0 -1,0.42408 -1,1 0,0.57592 0.4241,1 1,1 0.5759,0 1,-0.42408 1,-1 0,-0.57592 -0.4241,-1 -1,-1 z m 6,10 c 2.7377,0 5,2.26222 5,5 0,2.73783 -2.2623,5.00003 -5,5.00003 -2.7377,0 -5,-2.2622 -5,-5.00003 0,-2.73778 2.2623,-5 5,-5 z m 0,4 c -0.5759,0 -1,0.42408 -1,1 0,0.57592 0.4241,1.00003 1,1.00003 0.5759,0 1,-0.42411 1,-1.00003 0,-0.57592 -0.4241,-1 -1,-1 z m -14,6.00003 c 2.7377,0 5,2.2622 5,5 0,2.7378 -2.2623,5 -5,5 -2.7377,0 -5,-2.2622 -5,-5 0,-2.7378 2.2623,-5 5,-5 z m 0,4 c -0.5759,0 -1,0.4241 -1,1 0,0.5759 0.4241,1 1,1 0.5759,0 1,-0.4241 1,-1 0,-0.5759 -0.4241,-1 -1,-1 z m 20.9688,6 c -3.7231,0 -7.1851,2.1597 -10.9688,4.6562 -3.7837,2.4966 -7.8817,5.3438 -12.9688,5.3438 -2.8047,0 -5.1155,-0.2037 -7.4374,-1.1875 -1.6548,-0.7011 -3.2583,-1.7621 -5.0938,-3.2813 l -5.6562,13.25 -0.031,0.094 -0.062,0.094 c -1.1534,2.0485 -1.75,3.7938 -1.75,5.0313 0,1.7319 0.4559,2.8367 1.3125,3.625 0.8566,0.7883 2.3104,1.375 4.6875,1.375 l 52,0 c 2.3771,0 3.8309,-0.5867 4.6875,-1.375 0.8558,-0.7888 1.3117,-1.8936 1.3117,-3.6255 0,-1.2375 -0.5966,-2.9828 -1.75,-5.0313 l -0.062,-0.094 -0.031,-0.094 -5.8124,-13.625 c -3.7328,-4.4049 -7.5623,-5.1562 -12.375,-5.1562 z" fill="#000000" fill-opacity="1" stroke="none" marker="none" visibility="visible" display="inline" overflow="visible"/></g><text x="0" y="115" fill="#000000" font-size="5px" font-weight="bold" font-family="'Helvetica Neue', Helvetica, Arial-Unicode, Arial, Sans-serif">Created by Rockicon</text><text x="0" y="120" fill="#000000" font-size="5px" font-weight="bold" font-family="'Helvetica Neue', Helvetica, Arial-Unicode, Arial, Sans-serif">from the Noun Project</text></svg>